<?xml version="1.0" encoding="UTF-8"?>
<svg xmlns="http://www.w3.org/2000/svg" xmlns:xlink="http://www.w3.org/1999/xlink" width="256pt" height="256pt" viewBox="0 0 256 256" version="1.1">
<g id="surface1">
<path style=" stroke:none;fill-rule:nonzero;fill:rgb(0%,0%,0%);fill-opacity:1;" d="M 246 118 L 72.132812 118 C 66.609375 118 62.132812 122.476562 62.132812 128 C 62.132812 133.523438 66.609375 138 72.132812 138 L 246 138 C 251.523438 138 256 133.523438 256 128 C 256 122.476562 251.523438 118 246 118 Z M 246 118 "/>
<path style=" stroke:none;fill-rule:nonzero;fill:rgb(0%,0%,0%);fill-opacity:1;" d="M 246 43 L 72.132812 43 C 66.609375 43 62.132812 47.476562 62.132812 53 C 62.132812 58.523438 66.609375 63 72.132812 63 L 246 63 C 251.523438 63 256 58.523438 256 53 C 256 47.476562 251.523438 43 246 43 Z M 246 43 "/>
<path style=" stroke:none;fill-rule:nonzero;fill:rgb(0%,0%,0%);fill-opacity:1;" d="M 246 193 L 72.132812 193 C 66.609375 193 62.132812 197.476562 62.132812 203 C 62.132812 208.523438 66.609375 213 72.132812 213 L 246 213 C 251.523438 213 256 208.523438 256 203 C 256 197.476562 251.523438 193 246 193 Z M 246 193 "/>
<path style=" stroke:none;fill-rule:nonzero;fill:rgb(0%,0%,0%);fill-opacity:1;" d="M 27 53 C 27 60.457031 20.957031 66.5 13.5 66.5 C 6.042969 66.5 0 60.457031 0 53 C 0 45.542969 6.042969 39.5 13.5 39.5 C 20.957031 39.5 27 45.542969 27 53 Z M 27 53 "/>
<path style=" stroke:none;fill-rule:nonzero;fill:rgb(0%,0%,0%);fill-opacity:1;" d="M 27 128 C 27 135.457031 20.957031 141.5 13.5 141.5 C 6.042969 141.5 0 135.457031 0 128 C 0 120.542969 6.042969 114.5 13.5 114.5 C 20.957031 114.5 27 120.542969 27 128 Z M 27 128 "/>
<path style=" stroke:none;fill-rule:nonzero;fill:rgb(0%,0%,0%);fill-opacity:1;" d="M 27 203 C 27 210.457031 20.957031 216.5 13.5 216.5 C 6.042969 216.5 0 210.457031 0 203 C 0 195.542969 6.042969 189.5 13.5 189.5 C 20.957031 189.5 27 195.542969 27 203 Z M 27 203 "/>
</g>
</svg>
